<svg width="1438" height="329" viewBox="0 0 1438 329" fill="none" xmlns="http://www.w3.org/2000/svg">
<path d="M-154 328.095L-94.9667 287.095C-35.9333 246.095 82.1333 164.095 200.2 164.095C318.267 164.095 436.333 246.095 554.4 246.095C672.467 246.095 790.533 164.095 908.6 150.514C1026.67 135.908 1144.73 192.283 1262.8 177.676C1380.87 164.095 1498.93 82.0952 1557.97 41.0952L1617 0.0952148V328.095H1557.97C1498.93 328.095 1380.87 328.095 1262.8 328.095C1144.73 328.095 1026.67 328.095 908.6 328.095C790.533 328.095 672.467 328.095 554.4 328.095C436.333 328.095 318.267 328.095 200.2 328.095C82.1333 328.095 -35.9333 328.095 -94.9667 328.095H-154Z" fill="#4581F6"/>
</svg>
